<svg xmlns="http://www.w3.org/2000/svg" x="0px" y="0px"
width="50" height="50"
viewBox="0 0 172 172"
style=" fill:#ffffff;"><g fill="none" fill-rule="nonzero" stroke="none" stroke-width="1" stroke-linecap="butt" stroke-linejoin="miter" stroke-miterlimit="10" stroke-dasharray="" stroke-dashoffset="0" font-family="none" font-weight="none" font-size="none" text-anchor="none" style="mix-blend-mode: normal"><path d="M0,172v-172h172v172zs" fill="none"></path><path d="M14.62,86c0,-39.42209 31.95791,-71.38 71.38,-71.38c39.42209,0 71.38,31.95791 71.38,71.38c0,39.42209 -31.95791,71.38 -71.38,71.38c-39.42209,0 -71.38,-31.95791 -71.38,-71.38zM86,153.94c37.52223,0 67.94,-30.41777 67.94,-67.94c0,-37.52223 -30.41777,-67.94 -67.94,-67.94c-37.52223,0 -67.94,30.41777 -67.94,67.94c0,37.52223 30.41777,67.94 67.94,67.94z" fill="#000000"></path><g fill="#000000"><path d="M67.36667,44.075c-12.84302,0 -23.29167,10.44864 -23.29167,23.29167v37.26667c0,12.84302 10.44864,23.29167 23.29167,23.29167h37.26667c12.84302,0 23.29167,-10.44864 23.29167,-23.29167v-37.26667c0,-12.84302 -10.44864,-23.29167 -23.29167,-23.29167zM67.36667,53.39167h37.26667c7.70488,0 13.975,6.27012 13.975,13.975v37.26667c0,7.70488 -6.27012,13.975 -13.975,13.975h-37.26667c-7.70488,0 -13.975,-6.27012 -13.975,-13.975v-37.26667c0,-7.70488 6.27012,-13.975 13.975,-13.975zM109.29167,58.05c-2.57273,0 -4.65833,2.08561 -4.65833,4.65833c0,2.57273 2.08561,4.65833 4.65833,4.65833c2.57273,0 4.65833,-2.08561 4.65833,-4.65833c0,-2.57273 -2.08561,-4.65833 -4.65833,-4.65833zM86,62.70833c-12.84302,0 -23.29167,10.44864 -23.29167,23.29167c0,12.84302 10.44864,23.29167 23.29167,23.29167c12.84302,0 23.29167,-10.44864 23.29167,-23.29167c0,-12.84302 -10.44864,-23.29167 -23.29167,-23.29167zM86,72.025c7.70488,0 13.975,6.27012 13.975,13.975c0,7.70488 -6.27012,13.975 -13.975,13.975c-7.70488,0 -13.975,-6.27012 -13.975,-13.975c0,-7.70488 6.27012,-13.975 13.975,-13.975z"></path></g><path d="M86,157.38c-39.42209,0 -71.38,-31.95791 -71.38,-71.38v0c0,-39.42209 31.95791,-71.38 71.38,-71.38v0c39.42209,0 71.38,31.95791 71.38,71.38v0c0,39.42209 -31.95791,71.38 -71.38,71.38z" fill="none"></path><path d="M86,153.94c-37.52223,0 -67.94,-30.41777 -67.94,-67.94v0c0,-37.52223 30.41777,-67.94 67.94,-67.94v0c37.52223,0 67.94,30.41777 67.94,67.94v0c0,37.52223 -30.41777,67.94 -67.94,67.94z" fill="none"></path><path d="M86,157.38c-39.42209,0 -71.38,-31.95791 -71.38,-71.38v0c0,-39.42209 31.95791,-71.38 71.38,-71.38v0c39.42209,0 71.38,31.95791 71.38,71.38v0c0,39.42209 -31.95791,71.38 -71.38,71.38z" fill="none"></path><path d="M86,153.94c-37.52223,0 -67.94,-30.41777 -67.94,-67.94v0c0,-37.52223 30.41777,-67.94 67.94,-67.94v0c37.52223,0 67.94,30.41777 67.94,67.94v0c0,37.52223 -30.41777,67.94 -67.94,67.94z" fill="none"></path><path d="M86,157.38c-39.42209,0 -71.38,-31.95791 -71.38,-71.38v0c0,-39.42209 31.95791,-71.38 71.38,-71.38v0c39.42209,0 71.38,31.95791 71.38,71.38v0c0,39.42209 -31.95791,71.38 -71.38,71.38z" fill="none"></path><path d="M86,153.94c-37.52223,0 -67.94,-30.41777 -67.94,-67.94v0c0,-37.52223 30.41777,-67.94 67.94,-67.94v0c37.52223,0 67.94,30.41777 67.94,67.94v0c0,37.52223 -30.41777,67.94 -67.94,67.94z" fill="none"></path><path d="M86,157.38c-39.42209,0 -71.38,-31.95791 -71.38,-71.38v0c0,-39.42209 31.95791,-71.38 71.38,-71.38v0c39.42209,0 71.38,31.95791 71.38,71.38v0c0,39.42209 -31.95791,71.38 -71.38,71.38z" fill="none"></path><path d="M86,153.94c-37.52223,0 -67.94,-30.41777 -67.94,-67.94v0c0,-37.52223 30.41777,-67.94 67.94,-67.94v0c37.52223,0 67.94,30.41777 67.94,67.94v0c0,37.52223 -30.41777,67.94 -67.94,67.94z" fill="none"></path><path d="M86,157.38c-39.42209,0 -71.38,-31.95791 -71.38,-71.38v0c0,-39.42209 31.95791,-71.38 71.38,-71.38v0c39.42209,0 71.38,31.95791 71.38,71.38v0c0,39.42209 -31.95791,71.38 -71.38,71.38z" fill="none"></path><path d="M86,153.94c-37.52223,0 -67.94,-30.41777 -67.94,-67.94v0c0,-37.52223 30.41777,-67.94 67.94,-67.94v0c37.52223,0 67.94,30.41777 67.94,67.94v0c0,37.52223 -30.41777,67.94 -67.94,67.94z" fill="none"></path><path d="M86,157.38c-39.42209,0 -71.38,-31.95791 -71.38,-71.38v0c0,-39.42209 31.95791,-71.38 71.38,-71.38v0c39.42209,0 71.38,31.95791 71.38,71.38v0c0,39.42209 -31.95791,71.38 -71.38,71.38z" fill="none"></path><path d="M86,153.94c-37.52223,0 -67.94,-30.41777 -67.94,-67.94v0c0,-37.52223 30.41777,-67.94 67.94,-67.94v0c37.52223,0 67.94,30.41777 67.94,67.94v0c0,37.52223 -30.41777,67.94 -67.94,67.94z" fill="none"></path><path d="M86,157.38c-39.42209,0 -71.38,-31.95791 -71.38,-71.38v0c0,-39.42209 31.95791,-71.38 71.38,-71.38v0c39.42209,0 71.38,31.95791 71.38,71.38v0c0,39.42209 -31.95791,71.38 -71.38,71.38z" fill="none"></path><path d="M86,153.94c-37.52223,0 -67.94,-30.41777 -67.94,-67.94v0c0,-37.52223 30.41777,-67.94 67.94,-67.94v0c37.52223,0 67.94,30.41777 67.94,67.94v0c0,37.52223 -30.41777,67.94 -67.94,67.94z" fill="none"></path></g></svg>